<?xml version="1.0" encoding="UTF-8"?>
<svg width="128" height="128" viewBox="0 0 128 128" xmlns="http://www.w3.org/2000/svg">
  <defs>
    <linearGradient id="bg" x1="0" y1="0" x2="1" y2="1">
      <stop offset="0" stop-color="#1b2733"/>
      <stop offset="1" stop-color="#0c1116"/>
    </linearGradient>
    <linearGradient id="blade" x1="0" y1="0" x2="1" y2="1">
      <stop offset="0" stop-color="#4aa3f0"/>
      <stop offset="1" stop-color="#2f7fd6"/>
    </linearGradient>
  </defs>
  <rect x="4" y="4" width="120" height="120" rx="28" fill="url(#bg)"/>
  <g transform="translate(64,64)">
    <!-- four fan blades -->
    <g fill="url(#blade)">
      <path d="M0,-6 C22,-30 42,-24 40,-2 C24,-6 10,-2 0,-6 Z" transform="rotate(0)"/>
      <path d="M0,-6 C22,-30 42,-24 40,-2 C24,-6 10,-2 0,-6 Z" transform="rotate(90)"/>
      <path d="M0,-6 C22,-30 42,-24 40,-2 C24,-6 10,-2 0,-6 Z" transform="rotate(180)"/>
      <path d="M0,-6 C22,-30 42,-24 40,-2 C24,-6 10,-2 0,-6 Z" transform="rotate(270)"/>
    </g>
    <circle r="9" fill="#e8f2ff"/>
    <circle r="46" fill="none" stroke="#3a5064" stroke-width="4"/>
  </g>
</svg>
